<svg xmlns="http://www.w3.org/2000/svg" viewBox="0 0 511 512"><defs><style>.cls-1{fill:#006eff;}.cls-2{fill:#005adc;}.cls-3{fill:none;}</style></defs><title>Asset 1</title><g id="Layer_2" data-name="Layer 2"><g id="Layer_1-2" data-name="Layer 1"><path class="cls-1" d="M81.9,0A54.71,54.71,0,0,0,32.7,30.4l-29,58a35,35,0,0,0,15.65,47l44.73,22.36a35,35,0,0,0,47-15.65l11-22.09H195V392H184a35,35,0,0,0-35,35v50a35,35,0,0,0,35,35h71V0Z"/><path class="cls-2" d="M508.19,115.14a34.79,34.79,0,0,1-17.55,20.24l-44.72,22.36a35,35,0,0,1-47-15.65l-11-22.09H315V392h11a35,35,0,0,1,35,35v50a35,35,0,0,1-35,35H255V0H428.09a54.71,54.71,0,0,1,49.2,30.4l29,58A34.76,34.76,0,0,1,508.19,115.14Z"/><rect class="cls-3" width="255" height="512"/><path class="cls-3" d="M511,0V512H326a35,35,0,0,0,35-35V427a35,35,0,0,0-35-35H315V120h72.93l11,22.09a35,35,0,0,0,47,15.65l44.72-22.36a35,35,0,0,0,15.65-47l-29-58A54.71,54.71,0,0,0,428.09,0Z"/></g></g></svg>