<svg xmlns="http://www.w3.org/2000/svg" xmlns:xlink="http://www.w3.org/1999/xlink" viewBox="0 0 546.69 553.81"><defs><style>.cls-1{fill:none;clip-rule:evenodd;}.cls-2{clip-path:url(#clip-path);}.cls-3{fill:#3e82f1;}.cls-4{clip-path:url(#clip-path-2);}.cls-5{fill:#32a753;}.cls-6{clip-path:url(#clip-path-3);}.cls-7{fill:#f9bb00;}.cls-8{clip-path:url(#clip-path-4);}.cls-9{fill:#e74133;}</style><clipPath id="clip-path"><path class="cls-1" d="M447.8,281a204.88,204.88,0,0,0-3.24-36.41H276.91V313.4h95.8a81.94,81.94,0,0,1-35.52,53.73v44.66h57.53c33.66-31,53.08-76.62,53.08-130.84Z"/></clipPath><clipPath id="clip-path-2"><path class="cls-1" d="M276.91,454.92c48.06,0,88.36-15.94,117.81-43.13l-57.53-44.66c-15.94,10.68-36.33,17-60.28,17-46.37,0-85.61-31.32-99.61-73.39H117.83v46.12a177.94,177.94,0,0,0,159.08,98.07Z"/></clipPath><clipPath id="clip-path-3"><path class="cls-1" d="M177.3,310.73a105.31,105.31,0,0,1,0-67.65V197H117.83a178.28,178.28,0,0,0,0,159.89l59.47-46.12Z"/></clipPath><clipPath id="clip-path-4"><path class="cls-1" d="M276.91,169.69c26.13,0,49.6,9,68,26.63L396,145.26c-30.83-28.73-71.12-46.37-119.1-46.37A178,178,0,0,0,117.83,197l59.47,46.12c14-42.07,53.24-73.39,99.61-73.39Z"/></clipPath></defs><title>google</title><g id="Layer_2" data-name="Layer 2"><g id="Layer_1-2" data-name="Layer 1"><g class="cls-2"><rect class="cls-3" x="178.01" y="145.65" width="368.68" height="365.04"/></g><g class="cls-4"><rect class="cls-5" x="18.93" y="211.83" width="474.68" height="341.98"/></g><g class="cls-6"><rect class="cls-7" y="98.07" width="276.2" height="357.68"/></g><g class="cls-8"><rect class="cls-9" x="18.93" width="475.97" height="341.98"/></g></g></g></svg>