<svg xmlns="http://www.w3.org/2000/svg" viewBox="0 0 512 512"><defs><style>.cls-1{fill:#006eff;}.cls-2{fill:#fff;}.cls-3{fill:#c0daf9;}</style></defs><title>Asset 3</title><g id="Layer_2" data-name="Layer 2"><g id="Layer_1-2" data-name="Layer 1"><rect class="cls-1" width="512" height="512" rx="46.14"/><path class="cls-2" d="M145.87,93.13a34.83,34.83,0,0,0-31.3,19.34L96.12,149.39a22,22,0,0,0-2.35,9.92,22.29,22.29,0,0,0,12.3,19.95l28.46,14.23a22.25,22.25,0,0,0,29.87-10l7-14.05h46.39v173h-7a22.29,22.29,0,0,0-22.26,22.27V396.6a22.29,22.29,0,0,0,22.26,22.27H256V93.13Z"/><path class="cls-3" d="M417.08,166.39a22.16,22.16,0,0,1-11.17,12.87l-28.45,14.23a22.29,22.29,0,0,1-29.87-10l-7-14.05h-46.4v173h7a22.29,22.29,0,0,1,22.27,22.27V396.6a22.29,22.29,0,0,1-22.27,22.27H256V93.13H366.12a34.83,34.83,0,0,1,31.3,19.34l18.45,36.92A22.12,22.12,0,0,1,417.08,166.39Z"/></g></g></svg>