<svg xmlns="http://www.w3.org/2000/svg" viewBox="0 0 261 81.81"><defs><style>.cls-1{fill:#1e398d;}.cls-1,.cls-2{fill-rule:evenodd;}.cls-2{fill:#00aeef;}</style></defs><title>Asset 1</title><g id="Layer_2" data-name="Layer 2"><g id="Layer_1-2" data-name="Layer 1"><path class="cls-1" d="M.24,16A2.56,2.56,0,0,1,3,13.26H29.61c8.17.93,13.88,5.09,14.44,16v14.8a20.51,20.51,0,0,1-.76,6.18c-2.12,7.13-7.21,10.66-14.82,11.16H17.05V79.53c0,1.36-1.14,2-2.53,2h-12A2.29,2.29,0,0,1,0,79.12L.24,16ZM17.17,30h7.09A2.92,2.92,0,0,1,27.16,33V41.5a2.92,2.92,0,0,1-2.9,2.91H17.17V30Z"/><path class="cls-1" d="M57.17,13.34H75.79c10.89.63,16.79,6.35,16.64,18.22V75.48c0,3.41-3.44,6-6.38,6H61.65c-7.41,0-12.3-5.77-13.52-11.43-1.16-5.43-.29-12-.29-17.55,0-8.56,5.67-17.06,15.12-17.06H72.9c2.89-.15,2.76-6.46,0-6.24H57.37a2.57,2.57,0,0,1-2.82-2.44V15.24c0-1.47,1.21-1.9,2.62-1.9Zm10.27,38h5.68a2.45,2.45,0,0,1,2.43,2.44v9.89a2.44,2.44,0,0,1-2.43,2.44H67.44A2.44,2.44,0,0,1,65,63.65V53.76a2.45,2.45,0,0,1,2.44-2.44Z"/><path class="cls-1" d="M98.14,16.43V44.18c.67,8.7,8.48,15.21,17,15.21H123c3.25,0,3,5.46,0,5.46H106c-1.84,0-2.51,1-2.51,2.59V79.66a2.18,2.18,0,0,0,2.3,2.15h15.75c13.14,0,20.62-6.3,20.61-20.42v-46a1.85,1.85,0,0,0-1.86-2.09h-13.2c-1.22,0-1.93,1.32-1.93,2.29V40.79a1.53,1.53,0,0,1-1.58,1.72H117.3a2,2,0,0,1-2.22-2.15V16c0-1.61-.65-2.8-2.43-2.8H100c-1.45,0-1.81,1.43-1.81,3.23Z"/><path class="cls-2" d="M148.77,27.84v-12a2.34,2.34,0,0,1,2.33-2.34H154c7.44-1.55,9.21-5.92,13.76-10.82,2.8-3,5.25-3.83,7.06-.62V13.5h6.82A2.34,2.34,0,0,1,184,15.84v12a2.36,2.36,0,0,1-2.34,2.34h-6.82V79.34a2.35,2.35,0,0,1-2.34,2.35h-12a2.34,2.34,0,0,1-2.33-2.35V30.18h-7a2.35,2.35,0,0,1-2.33-2.34Z"/><path class="cls-2" d="M233.76,78.56a2.93,2.93,0,0,1-2.93,2.91H219.6a2.93,2.93,0,0,1-2.94-2.91V33.44c.09-4.88-9.74-5.64-9.74,0V78.56A2.92,2.92,0,0,1,204,81.47H192.76a2.94,2.94,0,0,1-2.94-2.91V16a2.94,2.94,0,0,1,2.94-2.92H204A2.93,2.93,0,0,1,206.92,16v.86c6.57-6.29,18-5.29,24,1.24C242.34,5,261.87,16.67,261,31c0,15.86-.14,31.56-.14,47.55a2.93,2.93,0,0,1-2.93,2.91H246.66a2.93,2.93,0,0,1-2.93-2.91V33.73c-.64-6.26-10.09-4.79-10.08,0,0,14.9.11,29.8.11,44.83Z"/></g></g></svg>